<svg width="7" height="14" viewBox="0 0 7 14" fill="none" xmlns="http://www.w3.org/2000/svg">
<path d="M0.547795 13.2803C0.254902 12.9874 0.254902 12.5126 0.547795 12.2197L4.28505 8.48241C4.68982 8.07764 4.96109 7.80555 5.15321 7.57924C5.33965 7.35962 5.40711 7.23294 5.43852 7.13627C5.52009 6.88522 5.52009 6.61478 5.43852 6.36373C5.40711 6.26706 5.33965 6.14038 5.15321 5.92076C4.96109 5.69445 4.68982 5.42236 4.28505 5.01759L0.547795 1.28033C0.254902 0.987437 0.254902 0.512563 0.547795 0.21967C0.840688 -0.0732231 1.31556 -0.0732231 1.60846 0.21967L5.36725 3.97846C5.74495 4.35615 6.06022 4.6714 6.29672 4.95C6.5434 5.24056 6.74813 5.54021 6.8651 5.9002C7.04456 6.45252 7.04456 7.04748 6.8651 7.5998C6.74813 7.95979 6.5434 8.25944 6.29672 8.55C6.06022 8.8286 5.74495 9.14385 5.36725 9.52154L1.60846 13.2803C1.31556 13.5732 0.840688 13.5732 0.547795 13.2803Z" fill="black"/>
</svg>
