<svg width="14" height="7" viewBox="0 0 14 7" fill="none" xmlns="http://www.w3.org/2000/svg">
<path d="M13.7803 6.45196C13.4874 6.74485 13.0126 6.74485 12.7197 6.45196L8.98241 2.7147C8.57764 2.30994 8.30555 2.03867 8.07924 1.84654C7.85962 1.6601 7.73294 1.59265 7.63627 1.56124C7.38522 1.47966 7.11478 1.47966 6.86373 1.56124C6.76706 1.59265 6.64038 1.6601 6.42076 1.84654C6.19445 2.03867 5.92236 2.30993 5.51759 2.7147L1.78033 6.45196C1.48744 6.74485 1.01256 6.74485 0.71967 6.45196C0.426777 6.15907 0.426777 5.68419 0.71967 5.3913L4.47846 1.63251C4.85615 1.2548 5.1714 0.939539 5.45 0.703033C5.74056 0.456361 6.04021 0.251621 6.4002 0.134653C6.95252 -0.044807 7.54748 -0.044807 8.0998 0.134653C8.45979 0.251621 8.75944 0.456361 9.05 0.703033C9.3286 0.939539 9.64385 1.2548 10.0215 1.63251L13.7803 5.3913C14.0732 5.68419 14.0732 6.15907 13.7803 6.45196Z" fill="black"/>
</svg>
