<svg width="14" height="7" viewBox="0 0 14 7" fill="none" xmlns="http://www.w3.org/2000/svg">
<path d="M13.2803 6.4519C12.9874 6.74479 12.5126 6.74479 12.2197 6.4519L8.48241 2.71464C8.07764 2.30987 7.80555 2.03861 7.57924 1.84648C7.35962 1.66004 7.23294 1.59258 7.13627 1.56118C6.88522 1.4796 6.61478 1.4796 6.36373 1.56118C6.26706 1.59258 6.14038 1.66004 5.92076 1.84648C5.69445 2.03861 5.42236 2.30987 5.01759 2.71464L1.28033 6.4519C0.987437 6.74479 0.512563 6.74479 0.21967 6.4519C-0.0732231 6.15901 -0.0732231 5.68413 0.21967 5.39124L3.97846 1.63245C4.35615 1.25474 4.6714 0.939478 4.95 0.702972C5.24056 0.4563 5.54021 0.25156 5.9002 0.134592C6.45252 -0.044868 7.04748 -0.044868 7.5998 0.134592C7.95979 0.25156 8.25944 0.4563 8.55 0.702972C8.8286 0.939478 9.14385 1.25474 9.52154 1.63244L13.2803 5.39124C13.5732 5.68413 13.5732 6.15901 13.2803 6.4519Z" fill="white"/>
</svg>
