<svg width="29" height="30" viewBox="0 0 29 30" fill="none" xmlns="http://www.w3.org/2000/svg">
<path d="M9.83333 2.85714V0H19.1667V2.85714H9.83333ZM12.9444 18.5714H16.0556V10H12.9444V18.5714ZM14.5 30C12.5815 30 10.7729 29.6609 9.07422 28.9828C7.37556 28.3048 5.89156 27.3819 4.62222 26.2143C3.35289 25.0467 2.34852 23.6833 1.60911 22.1243C0.869704 20.5652 0.5 18.9048 0.5 17.1429C0.5 15.3809 0.869704 13.72 1.60911 12.16C2.34852 10.6 3.35289 9.23714 4.62222 8.07143C5.89156 6.90571 7.37607 5.98333 9.07578 5.30428C10.7755 4.62524 12.5836 4.28571 14.5 4.28571C16.1074 4.28571 17.65 4.52381 19.1278 5C20.6056 5.47619 21.9926 6.16666 23.2889 7.07143L25.4667 5.07143L27.6444 7.07143L25.4667 9.07143C26.4519 10.2619 27.2037 11.5357 27.7222 12.8929C28.2407 14.25 28.5 15.6667 28.5 17.1429C28.5 18.9048 28.1303 20.5657 27.3909 22.1257C26.6515 23.6857 25.6471 25.0486 24.3778 26.2143C23.1084 27.38 21.6239 28.3028 19.9242 28.9828C18.2245 29.6628 16.4164 30.0019 14.5 30ZM14.5 27.1428C17.5074 27.1428 20.0741 26.1667 22.2 24.2143C24.3259 22.2619 25.3889 19.9048 25.3889 17.1429C25.3889 14.3809 24.3259 12.0238 22.2 10.0714C20.0741 8.11905 17.5074 7.14285 14.5 7.14285C11.4926 7.14285 8.92593 8.11905 6.8 10.0714C4.67407 12.0238 3.61111 14.3809 3.61111 17.1429C3.61111 19.9048 4.67407 22.2619 6.8 24.2143C8.92593 26.1667 11.4926 27.1428 14.5 27.1428Z" fill="white"/>
</svg>
